<svg xmlns="http://www.w3.org/2000/svg" xmlns:xlink="http://www.w3.org/1999/xlink" width="500" zoomAndPan="magnify" viewBox="0 0 375 233.04" height="300" preserveAspectRatio="xMidYMid meet" version="1.0"><defs><g/><clipPath id="fe9de446d2"><rect x="0" width="174" y="0" height="75"/></clipPath></defs><path fill="#01aacb" d="M 51.273438 162.292969 L 25.917969 162.292969 L 25.90625 113.402344 C 28.867188 70.207031 87.296875 57.398438 106.953125 97.019531 C 113.289062 109.792969 111.078125 123.425781 111.449219 137.226562 L 127.75 137.226562 C 131.78125 137.226562 139.042969 133.589844 142.230469 131.089844 C 159.714844 117.371094 157.378906 89.246094 137.921875 78.589844 C 135.371094 77.191406 129.152344 74.835938 126.355469 74.835938 L 85.539062 74.835938 L 85.539062 50.742188 C 85.539062 50.511719 86.214844 50.25 86.5 50.3125 C 114.019531 51.429688 139.703125 44.589844 161.742188 65.082031 C 193.265625 94.386719 180.027344 151.167969 137.585938 160.988281 C 130.007812 162.742188 114.980469 163.039062 107.164062 162.257812 C 101.953125 161.734375 95.714844 157.875 92.359375 153.9375 C 82.316406 142.152344 86.867188 128 85.828125 113.957031 C 84.457031 95.445312 59.378906 91.394531 52.527344 108.542969 C 52.222656 109.316406 51.269531 112.214844 51.269531 112.855469 L 51.269531 162.292969 Z M 51.273438 162.292969 " fill-opacity="1" fill-rule="nonzero"/><g transform="matrix(1, 0, 0, 1, 187, 74)"><g clip-path="url(#fe9de446d2)"><g fill="#070707" fill-opacity="1"><g transform="translate(0.512764, 55.61264)"><g><path d="M 32.582031 0 L 32.582031 -7.449219 L 12.597656 -7.449219 L 12.597656 -16.835938 L 32.15625 -16.835938 L 32.15625 -24.222656 L 12.597656 -24.222656 L 12.597656 -33.007812 L 32.582031 -33.007812 L 32.582031 -40.394531 L 3.996094 -40.394531 L 3.996094 0 Z M 32.582031 0 "/></g></g></g><g fill="#070707" fill-opacity="1"><g transform="translate(35.814387, 55.61264)"><g><path d="M 31.25 0 L 31.25 -20.652344 C 31.25 -26.34375 28.160156 -29.976562 21.742188 -29.976562 C 16.957031 -29.976562 13.382812 -27.675781 11.507812 -25.4375 L 11.507812 -29.25 L 3.816406 -29.25 L 3.816406 0 L 11.507812 0 L 11.507812 -19.683594 C 12.777344 -21.4375 15.140625 -23.132812 18.167969 -23.132812 C 21.4375 -23.132812 23.558594 -21.742188 23.558594 -17.683594 L 23.558594 0 Z M 31.25 0 "/></g></g></g><g fill="#070707" fill-opacity="1"><g transform="translate(70.873804, 55.61264)"><g><path d="M 31.671875 0 L 31.671875 -40.394531 L 23.921875 -40.394531 L 23.921875 -25.496094 C 21.621094 -28.464844 18.351562 -29.976562 14.898438 -29.976562 C 7.449219 -29.976562 1.9375 -24.164062 1.9375 -14.59375 C 1.9375 -4.84375 7.507812 0.726562 14.898438 0.726562 C 18.410156 0.726562 21.621094 -0.847656 23.921875 -3.695312 L 23.921875 0 Z M 23.921875 -9.449219 C 22.589844 -7.507812 19.863281 -6.117188 17.261719 -6.117188 C 12.898438 -6.117188 9.871094 -9.570312 9.871094 -14.59375 C 9.871094 -19.683594 12.898438 -23.132812 17.261719 -23.132812 C 19.863281 -23.132812 22.589844 -21.742188 23.921875 -19.804688 Z M 23.921875 -9.449219 "/></g></g></g><g fill="#070707" fill-opacity="1"><g transform="translate(106.357091, 55.61264)"><g><path d="M 1.9375 -14.65625 C 1.9375 -5.269531 8.660156 0.726562 17.5625 0.726562 C 22.105469 0.726562 26.648438 -0.605469 29.613281 -3.332031 L 26.222656 -8.296875 C 24.34375 -6.480469 21.136719 -5.390625 18.410156 -5.390625 C 13.445312 -5.390625 10.476562 -8.480469 9.992188 -12.171875 L 31.734375 -12.171875 L 31.734375 -13.867188 C 31.734375 -23.4375 25.800781 -29.976562 17.078125 -29.976562 C 8.175781 -29.976562 1.9375 -23.132812 1.9375 -14.65625 Z M 17.078125 -23.859375 C 22.164062 -23.859375 24.101562 -20.167969 24.285156 -17.382812 L 9.871094 -17.382812 C 10.234375 -20.289062 12.292969 -23.859375 17.078125 -23.859375 Z M 17.078125 -23.859375 "/></g></g></g><g fill="#070707" fill-opacity="1"><g transform="translate(139.842168, 55.61264)"><g><path d="M 1.9375 -14.65625 C 1.9375 -5.269531 8.660156 0.726562 17.5625 0.726562 C 22.105469 0.726562 26.648438 -0.605469 29.613281 -3.332031 L 26.222656 -8.296875 C 24.34375 -6.480469 21.136719 -5.390625 18.410156 -5.390625 C 13.445312 -5.390625 10.476562 -8.480469 9.992188 -12.171875 L 31.734375 -12.171875 L 31.734375 -13.867188 C 31.734375 -23.4375 25.800781 -29.976562 17.078125 -29.976562 C 8.175781 -29.976562 1.9375 -23.132812 1.9375 -14.65625 Z M 17.078125 -23.859375 C 22.164062 -23.859375 24.101562 -20.167969 24.285156 -17.382812 L 9.871094 -17.382812 C 10.234375 -20.289062 12.292969 -23.859375 17.078125 -23.859375 Z M 17.078125 -23.859375 "/></g></g></g></g></g></svg>